<?xml version="1.0" encoding="utf-8"?>
<!-- Generator: Adobe Illustrator 26.0.0, SVG Export Plug-In . SVG Version: 6.00 Build 0)  -->
<svg version="1.1" id="Layer_1" xmlns="http://www.w3.org/2000/svg" xmlns:xlink="http://www.w3.org/1999/xlink" x="0px" y="0px"
	 viewBox="0 0 207 61" style="enable-background:new 0 0 207 61;" xml:space="preserve">
<style type="text/css">
	.st0{fill:#232323;}
	.st1{fill:#E0E45D;}
	.st2{fill:#D1DD3A;}
	.st3{fill:#B8D434;}
	.st4{fill:#95A83B;}
	.st5{fill:#814E59;}
	.st6{fill:#A86269;}
	.st7{fill:#C86465;}
</style>
<g>
	<g>
		<g>
			<path class="st0" d="M70.6,16.5v21.6H75v5.1H63.8V16.5H70.6z"/>
			<path class="st0" d="M94,43.3l-6.3,0l-0.5-4.9c0,0-2.8,0-3.4,0l-0.5,4.9l-6.3,0l3.4-26.7h9.8L94,43.3z M86.7,33.9l-1.3-12.1
				l-1.3,12.1C84.2,34,86.7,33.9,86.7,33.9z"/>
			<path class="st0" d="M100.5,16.5l1.8,18.6l1.9-18.6h7l2,18.5l1.8-18.5h6.3l-2.7,26.7l-8.8,0.1l-2-14.9l-2.2,14.8h-8.4L94,16.5
				H100.5z"/>
			<path class="st0" d="M138.7,43.3l-6.3,0l-0.5-4.9c0,0-2.8,0-3.4,0l-0.5,4.9l-6.3,0l3.4-26.7h9.7L138.7,43.3z M131.5,33.9
				l-1.3-12.1l-1.3,12.1C128.9,34,131.5,33.9,131.5,33.9z"/>
			<path class="st0" d="M146.5,16.5l3.9,12.7V16.5h5.7v26.7h-5.6l-4-12.7v12.7h-5.7V16.5H146.5z"/>
			<path class="st0" d="M173.6,18.3c1.4,1.4,1.4,3.9,1.4,5.4v13.3c0,1.6,0.1,3.4-1.3,4.8c-1.7,1.7-4.8,1.6-6.2,1.6h-8.6V16.5h7.4
				C168.1,16.5,171.8,16.5,173.6,18.3z M167.2,38.5c1-0.6,1-2.5,1-3.1V24.6c0-0.5,0.1-2.6-0.5-3.3c-0.4-0.5-1.1-0.5-2.1-0.5v17.9
				C165.6,38.7,166.9,38.7,167.2,38.5z"/>
		</g>
	</g>
	<g>
		<g>
			<path class="st0" d="M178,12.4h-1.6v-0.6h3.8v0.6h-1.6v4H178V12.4z"/>
			<path class="st0" d="M185.2,16.4l0-3.3l-1.7,2.8h-0.3l-1.7-2.8v3.3H181v-4.6h0.5l1.9,3.2l1.9-3.2h0.5l0,4.6H185.2z"/>
		</g>
	</g>
</g>
<g>
	<rect y="0" class="st1" width="16.7" height="16.7"/>
	<rect y="17.9" class="st2" width="16.7" height="16.7"/>
	<rect y="35.9" class="st3" width="16.7" height="16.7"/>
	<rect x="17.7" y="35.9" class="st4" width="16.7" height="16.7"/>
	<rect x="17.7" y="8.8" class="st5" width="16.7" height="16.7"/>
	<rect x="35.6" y="8.8" class="st5" width="16.7" height="16.7"/>
	<rect x="35.6" y="26.7" class="st6" width="16.7" height="16.7"/>
	<rect x="35.6" y="44.3" class="st7" width="16.7" height="16.7"/>
</g>
</svg>
