<?xml version="1.0" encoding="utf-8"?>
<!-- Generator: Adobe Illustrator 26.0.0, SVG Export Plug-In . SVG Version: 6.00 Build 0)  -->
<svg version="1.1" id="Layer_1" xmlns="http://www.w3.org/2000/svg" xmlns:xlink="http://www.w3.org/1999/xlink" x="0px" y="0px"
	 viewBox="0 0 207 61" style="enable-background:new 0 0 207 61;" xml:space="preserve">
<style type="text/css">
	.st0{fill:#FBED1D;}
</style>
<g>
	<g>
		<g>
			<path class="st0" d="M72.6,14.9v21.6H77v5.1H65.8V14.9H72.6z"/>
			<path class="st0" d="M96,41.6l-6.3,0l-0.5-4.9c0,0-2.8,0-3.4,0l-0.5,4.9l-6.3,0l3.4-26.7h9.8L96,41.6z M88.7,32.2l-1.3-12.1
				l-1.3,12.1C86.2,32.3,88.7,32.2,88.7,32.2z"/>
			<path class="st0" d="M102.5,14.9l1.8,18.6l1.9-18.6h7l2,18.5l1.8-18.5h6.3l-2.7,26.7l-8.8,0.1l-2-14.9l-2.2,14.8h-8.4L96,14.9
				H102.5z"/>
			<path class="st0" d="M140.7,41.6l-6.3,0l-0.5-4.9c0,0-2.8,0-3.4,0l-0.5,4.9l-6.3,0l3.4-26.7h9.7L140.7,41.6z M133.4,32.2
				l-1.3-12.1l-1.3,12.1C130.9,32.3,133.4,32.2,133.4,32.2z"/>
			<path class="st0" d="M148.5,14.9l3.9,12.7V14.9h5.7v26.7h-5.6l-4-12.7v12.7h-5.7V14.9H148.5z"/>
			<path class="st0" d="M175.5,16.6C177,18,177,20.5,177,22v13.3c0,1.6,0.1,3.4-1.3,4.8c-1.7,1.7-4.8,1.6-6.2,1.6h-8.6V14.9h7.4
				C170.1,14.9,173.8,14.8,175.5,16.6z M169.2,36.9c1-0.6,1-2.5,1-3.1V23c0-0.5,0.1-2.6-0.5-3.3c-0.4-0.5-1.1-0.5-2.1-0.5V37
				C167.6,37,168.8,37,169.2,36.9z"/>
		</g>
	</g>
	<g>
		<g>
			<path class="st0" d="M180,10.7h-1.6v-0.6h3.8v0.6h-1.6v4H180V10.7z"/>
			<path class="st0" d="M187.2,14.7l0-3.3l-1.7,2.8h-0.3l-1.7-2.8v3.3H183v-4.6h0.5l1.9,3.2l1.9-3.2h0.5l0,4.6H187.2z"/>
		</g>
	</g>
</g>
<g>
	<rect x="2" y="0.3" class="st0" width="16.7" height="16.7"/>
	<rect x="2" y="18.3" class="st0" width="16.7" height="16.7"/>
	<rect x="2" y="36.2" class="st0" width="16.7" height="16.7"/>
	<rect x="19.7" y="36.2" class="st0" width="16.7" height="16.7"/>
	<rect x="19.7" y="9.1" class="st0" width="16.7" height="16.7"/>
	<rect x="37.6" y="9.1" class="st0" width="16.7" height="16.7"/>
	<rect x="37.6" y="27.1" class="st0" width="16.7" height="16.7"/>
	<rect x="37.6" y="44.7" class="st0" width="16.7" height="16.7"/>
</g>
</svg>
